<svg xmlns="http://www.w3.org/2000/svg" viewBox="0 0 128 128"><defs><style>.cls-1{fill:#5746db;}.cls-2{fill:#816dff;}.cls-3{fill:#bbbdbf;}.cls-4{fill:#f1f1f2;}</style></defs><g id="logo"><path class="cls-1" d="M46.51,17.6A17.84,17.84,0,0,1,47,13.71,17.54,17.54,0,0,1,64,0H17.52A17.56,17.56,0,0,0,0,17.6H0A17.56,17.56,0,0,0,17.52,35.2H64A17.56,17.56,0,0,1,46.51,17.6Z"/><path class="cls-2" d="M110.48,0H64A17.54,17.54,0,0,0,47,13.71a17.84,17.84,0,0,0-.44,3.89A17.56,17.56,0,0,0,64,35.2h46.45A17.56,17.56,0,0,0,128,17.6h0A17.56,17.56,0,0,0,110.48,0Z"/><path class="cls-1" d="M61.15,64h0A17.56,17.56,0,0,1,78.67,46.4H17.33A17.37,17.37,0,0,0,0,63.8v.67A17.29,17.29,0,0,0,17.33,81.6H78.67A17.56,17.56,0,0,1,61.15,64Z"/><path class="cls-2" d="M110.67,46.4h-32A17.56,17.56,0,0,0,61.15,64h0A17.56,17.56,0,0,0,78.67,81.6h32A17.29,17.29,0,0,0,128,64.47V63.8A17.37,17.37,0,0,0,110.67,46.4Z"/><path class="cls-3" d="M53,124a17.57,17.57,0,0,1-6.33-12.6l0-.33,0,.33A17.57,17.57,0,0,0,53,124Z"/><path class="cls-3" d="M54.29,125c.33.23.68.45,1,.65C55,125.4,54.62,125.19,54.29,125Z"/><path class="cls-3" d="M53,124a15.89,15.89,0,0,0,1.3,1A15.89,15.89,0,0,1,53,124Z"/><path class="cls-3" d="M57.36,126.64a16.94,16.94,0,0,1-2-1A16.94,16.94,0,0,0,57.36,126.64Z"/><path class="cls-4" d="M116.57,100.93c-.36.52-.73,1-1.1,1.55A5.67,5.67,0,0,0,116.57,100.93Z"/><path class="cls-2" d="M111.47,92.8H64.13a17.56,17.56,0,0,0-17.52,17.6c0,.22,0,.43,0,.64l0,.33A17.57,17.57,0,0,0,53,124a15.89,15.89,0,0,0,1.3,1c.33.23.68.44,1,.65a16.94,16.94,0,0,0,2,1A17.52,17.52,0,0,0,64.13,128h0a64.75,64.75,0,0,0,51.36-25.52c.37-.51.74-1,1.1-1.55a5.64,5.64,0,0,0,.57-2.47h0A5.67,5.67,0,0,0,111.47,92.8Z"/><path class="cls-3" d="M16.93,92.6Z"/><path class="cls-3" d="M12.69,102c-.22-.29-.43-.58-.64-.88A5.66,5.66,0,0,0,12.69,102Z"/><path class="cls-1" d="M55.32,125.61c-.35-.2-.7-.42-1-.65a15.89,15.89,0,0,1-1.3-1,17.57,17.57,0,0,1-6.33-12.6l0-.33c0-.21,0-.42,0-.64A17.56,17.56,0,0,1,64.13,92.8l-46.88-.19h-.61a5.66,5.66,0,0,0-5.38,5.65h0a5.63,5.63,0,0,0,.79,2.88c.21.3.42.59.64.88A63.46,63.46,0,0,0,64,128h.09a17.52,17.52,0,0,1-6.77-1.36A16.94,16.94,0,0,1,55.32,125.61Z"/></g></svg>