<svg width="500" height="500" viewBox="0 0 500 500" fill="none" xmlns="http://www.w3.org/2000/svg">
<rect width="500" height="500" fill="#DEE1CF"/>
<path d="M180.118 167.657C194.091 157.177 213.207 157.48 214.477 157.48C215.746 157.48 218.295 156.84 217.026 152.392C208 120.789 190.934 104.668 186.486 99.5797C182.027 94.4916 171.851 88.7633 173.761 105.308C175.67 121.853 177.579 167.028 177.579 167.028C177.579 167.028 178.209 168.297 180.118 167.657Z" fill="#CFFE25"/>
<path d="M281.924 156.84C287.012 153.022 325.83 165.747 332.187 174.025C333.218 175.36 334.14 173.591 333.153 167.125C326.134 121.223 306.063 96.1515 300.367 88.7634C293.999 80.4965 280.004 71.5787 283.432 94.4699C286.936 117.828 281.924 156.84 281.924 156.84Z" fill="#CFFE25"/>
<path d="M179.163 277.426C179.163 277.426 190.5 235.636 215.431 208.069C227.517 194.703 234.525 181.977 217.341 178.799C200.156 175.62 168.987 209.338 176.614 274.248C176.614 274.237 177.254 279.965 179.163 277.426Z" fill="#CFFE25"/>
<path d="M216.657 417.583C216.657 417.583 245.895 400.702 263.068 377.182C271.4 365.78 284.148 362.677 287.967 372.495C292.827 384.993 271.325 413.124 219.564 418.929C219.564 418.918 215.008 419.46 216.657 417.583Z" fill="#CFFE25"/>
<path d="M195.946 275.234C195.946 275.234 208.65 257.42 226.247 249.544C234.786 245.725 239.754 236.634 230.706 232.24C221.658 227.857 195.708 241.787 194.992 273.379C194.992 273.379 195.187 274.757 196.586 273.954" fill="#1A202C"/>
<path d="M280.709 307.814C280.709 307.814 318.377 296.282 327.099 280.29C327.598 279.379 331.558 274.562 336.006 265.655C336.733 264.201 340.519 264.212 342.375 265.655C348.103 270.114 347.951 278.435 348.103 280.29C349.372 295.566 319.473 321.017 280.655 310.819C280.655 310.819 278.963 309.886 280.579 308.194L280.709 307.814Z" fill="#CFFE25"/>
<path d="M295.756 321.505C295.756 321.505 321.62 326.018 332.447 318.381C333.066 317.947 335.93 315.842 341.723 311.459C342.667 310.743 346.182 310.819 346.551 313.716C347.18 318.695 345.119 323.816 344.533 325.075C339.716 335.424 313.266 342.465 294.639 323.436C294.639 323.436 293.999 322.286 295.55 321.701L295.756 321.505Z" fill="#CFFE25"/>
<path d="M164.961 273.488C164.961 273.488 160.513 256.205 149.947 245.237C144.826 239.921 143.643 231.513 151.292 230.624C158.94 229.745 173.923 247.7 166.144 272.327C166.144 272.327 165.645 273.336 164.842 272.327" fill="#1A202C"/>
<path d="M127.934 260.556L127.294 289.827C127.294 289.827 140.953 294.144 143.839 317.188C144.479 322.276 145.748 316.547 145.748 316.547C145.748 316.547 148.298 305.091 147.018 298.734C145.737 292.376 137.47 265.644 137.47 265.644L127.934 260.556Z" fill="#1A202C"/>
<path d="M127.62 251.975C127.62 251.975 151.802 264.7 146.714 309.875C146.714 309.875 146.399 277.112 127.305 261.196L127.62 251.975Z" fill="#CFFE25"/>
<path d="M118.712 398.316C118.712 398.316 134.617 408.492 142.255 402.774C149.892 397.057 148.623 387.499 148.623 387.499C148.623 387.499 133.348 376.043 132.718 371.595C132.078 367.136 133.988 363.328 139.087 362.048C144.175 360.778 166.448 361.408 174.085 366.507C181.723 371.606 169.626 379.232 169.626 379.232L157.541 386.23C157.541 386.23 152.453 388.779 156.901 398.316C161.36 407.863 183.622 418.679 207.804 414.22C207.804 414.22 252.198 409.175 271.118 377.638C274.937 371.28 284.799 369.685 284.484 380.187C284.137 391.633 247.576 413.906 232.312 417.724C217.036 421.543 180.139 429.81 151.498 404.358C151.498 404.358 142.276 415.489 124.451 409.132L118.712 398.316Z" fill="#1A202C"/>
<path d="M318.507 246.246C318.507 246.246 319.256 256.748 302.689 271.991C293.392 280.54 272.291 285.845 268.428 286.051C264.566 286.257 234.384 302.357 217.601 320.995C213.934 325.064 215.637 315.647 215.637 315.647C215.637 315.647 220.498 253.07 290.56 254.611C297.59 254.762 314.775 250.944 318.507 246.246Z" fill="#CFFE25"/>
<path d="M318.506 246.246C318.506 246.246 320.524 256.596 305.781 273.607C297.514 283.154 277.15 290.792 273.332 291.421C269.513 292.061 232.55 301.554 217.97 321.961C214.791 326.42 215.42 316.873 215.42 316.873C215.42 316.873 222.027 264.038 291.775 257.703C298.783 257.062 315.328 251.334 318.506 246.246Z" fill="#1A202C"/>
<path d="M286.025 57.6376C287.034 57.6376 288.108 57.7244 289.236 57.898C313.419 61.7168 326.144 75.7119 349.687 112.62C373.229 149.528 398.68 238.609 372.589 325.14C347.43 408.611 268.981 442.362 208.065 442.362C205.83 442.362 203.617 442.319 201.436 442.232C139.717 439.683 121.262 402.145 117.444 381.153C113.625 360.16 124.441 334.708 124.441 334.708C124.441 334.708 130.81 305.438 128.9 264.082C126.991 222.726 142.863 196.678 162.619 176.911C168.987 170.542 161.349 105.644 161.349 105.644C161.349 105.644 153.712 71.9257 175.344 70.6455C175.865 70.613 176.386 70.6021 176.907 70.6021C198.279 70.6021 224.685 95.8367 240.568 133.96C243.747 141.598 246.296 146.686 246.296 152.414L264.436 151.459C264.436 151.459 264.555 151.47 264.761 151.47C265.879 151.47 269.524 151.014 269.524 145.091C269.524 138.093 269.524 92.9184 269.524 92.9184C269.524 92.9184 265.466 57.6376 286.025 57.6376ZM286.025 50C279.592 50 274.015 52.4519 269.871 57.0843C259.879 68.2913 261.463 89.2406 261.875 93.2981V143.919L252.773 144.397C251.829 140.968 250.397 137.594 248.846 133.938C248.444 132.994 248.032 132.018 247.609 130.998C239.516 111.568 228.634 94.8061 216.147 82.5142C203.128 69.7125 189.556 62.9428 176.907 62.9428C176.234 62.9428 175.561 62.9645 174.9 62.997C167.924 63.4093 162.174 66.3819 158.257 71.5894C149.383 83.393 152.996 103.073 153.809 106.881C154.08 109.235 155.588 122.623 156.587 136.954C158.409 163.057 157.064 170.434 156.576 172.148C130.799 198.229 119.57 227.575 121.273 264.418C122.955 300.947 117.975 328.091 117.107 332.463C115.241 337.106 106.085 361.375 109.936 382.509C111.574 391.535 116.684 408.937 132.437 424.104C148.938 439.986 172.046 448.655 201.121 449.859C203.411 449.957 205.743 450 208.065 450C224.577 450 241.36 447.7 257.948 443.154C275.795 438.272 292.556 430.993 307.766 421.543C324.485 411.161 338.968 398.337 350.815 383.431C363.845 367.049 373.63 348.183 379.901 327.353C394.981 277.318 392.247 229.973 387.289 199.064C381.702 164.196 370.05 130.347 356.12 108.519C344.729 90.6509 335.062 76.8077 324.929 67.2932C314.764 57.7461 304.121 52.5278 290.43 50.3689C288.922 50.1193 287.446 50 286.025 50Z" fill="#1A202C"/>
</svg>
