<svg xmlns="http://www.w3.org/2000/svg" version="1.1" xmlns:xlink="http://www.w3.org/1999/xlink" xmlns:svgjs="http://svgjs.dev/svgjs" width="2000" height="585" viewBox="0 0 2000 585"><g transform="matrix(1,0,0,1,-1.2121212121212466,1.2566290591015559)"><svg viewBox="0 0 396 116" data-background-color="#001a3e" preserveAspectRatio="xMidYMid meet" height="585" width="2000" xmlns="http://www.w3.org/2000/svg" xmlns:xlink="http://www.w3.org/1999/xlink"><g id="tight-bounds" transform="matrix(1,0,0,1,0.2400000000000091,-0.24917772795859605)"><svg viewBox="0 0 395.52 116.49835545591719" height="116.49835545591719" width="395.52"><g><svg viewBox="0 0 561.0972157568307 165.26826174798927" height="116.49835545591719" width="395.52"><g transform="matrix(1,0,0,1,165.57721575683073,51.07029173190348)"><svg viewBox="0 0 395.52 63.1276782841823" height="63.1276782841823" width="395.52"><g id="textblocktransform"><svg viewBox="0 0 395.52 63.1276782841823" height="63.1276782841823" width="395.52" id="textblock"><g><svg viewBox="0 0 395.52 63.1276782841823" height="63.1276782841823" width="395.52"><g transform="matrix(1,0,0,1,0,0)"><svg width="395.52" viewBox="3.05 -35.65 279.72999999999996 44.65" height="63.1276782841823" data-palette-color="#ffffff"><path d="M19.1 0.4Q14.2 0.4 10.58-1.8 6.95-4 5-8.05 3.05-12.1 3.05-17.6L3.05-17.6Q3.05-23.15 4.98-27.23 6.9-31.3 10.53-33.48 14.15-35.65 19.1-35.65L19.1-35.65Q24.05-35.65 27.68-33.48 31.3-31.3 33.23-27.23 35.15-23.15 35.15-17.65L35.15-17.65Q35.15-12.15 33.2-8.08 31.25-4 27.63-1.8 24 0.4 19.1 0.4L19.1 0.4ZM19.1-3.1Q24.7-3.1 27.83-6.88 30.95-10.65 30.95-17.65L30.95-17.65Q30.95-24.65 27.85-28.4 24.75-32.15 19.1-32.15L19.1-32.15Q13.5-32.15 10.38-28.38 7.25-24.6 7.25-17.65L7.25-17.65Q7.25-10.7 10.38-6.9 13.5-3.1 19.1-3.1L19.1-3.1ZM54.2-24.95Q62.95-24.95 62.95-15.3L62.95-15.3 62.95 0 58.9 0 58.9-15.05Q58.9-18.45 57.57-20 56.25-21.55 53.35-21.55L53.35-21.55Q50-21.55 48-19.5 46-17.45 46-13.95L46-13.95 46 0 41.95 0 41.95-24.35 45.95-24.35 45.95-20.35Q47.15-22.6 49.3-23.78 51.45-24.95 54.2-24.95L54.2-24.95ZM86 0.4Q81 0.4 77.3-1.78 73.6-3.95 71.62-8.03 69.65-12.1 69.65-17.65L69.65-17.65Q69.65-23.2 71.62-27.25 73.6-31.3 77.3-33.48 81-35.65 86-35.65L86-35.65Q89.65-35.65 92.7-34.52 95.75-33.4 98-31.2L98-31.2 96.45-28.05Q93.9-30.2 91.45-31.15 89-32.1 86.05-32.1L86.05-32.1Q80.25-32.1 77.07-28.33 73.9-24.55 73.9-17.65L73.9-17.65Q73.9-10.7 77.07-6.93 80.25-3.15 86.05-3.15L86.05-3.15Q89-3.15 91.45-4.1 93.9-5.05 96.45-7.2L96.45-7.2 98-4.05Q95.75-1.85 92.7-0.73 89.65 0.4 86 0.4L86 0.4ZM116.44-24.95Q125.19-24.95 125.19-15.3L125.19-15.3 125.19 0 121.14 0 121.14-15.05Q121.14-18.45 119.82-20 118.49-21.55 115.59-21.55L115.59-21.55Q112.24-21.55 110.24-19.5 108.24-17.45 108.24-13.95L108.24-13.95 108.24 0 104.19 0 104.19-35.25 108.24-35.25 108.24-20.45Q109.44-22.65 111.57-23.8 113.69-24.95 116.44-24.95L116.44-24.95ZM142.49-24.95Q147.14-24.95 149.42-22.58 151.69-20.2 151.69-15.35L151.69-15.35 151.69 0 147.74 0 147.74-4.15Q146.79-2 144.84-0.83 142.89 0.35 140.34 0.35L140.34 0.35Q137.99 0.35 136.02-0.6 134.04-1.55 132.89-3.25 131.74-4.95 131.74-7L131.74-7Q131.74-9.75 133.14-11.28 134.54-12.8 137.74-13.48 140.94-14.15 146.64-14.15L146.64-14.15 147.74-14.15 147.74-15.8Q147.74-18.85 146.49-20.23 145.24-21.6 142.44-21.6L142.44-21.6Q138.24-21.6 134.09-19L134.09-19 132.74-21.95Q134.64-23.3 137.32-24.13 139.99-24.95 142.49-24.95L142.49-24.95ZM140.89-2.85Q143.89-2.85 145.82-4.88 147.74-6.9 147.74-10.1L147.74-10.1 147.74-11.55 146.84-11.55Q142.44-11.55 140.14-11.18 137.84-10.8 136.87-9.93 135.89-9.05 135.89-7.35L135.89-7.35Q135.89-5.4 137.32-4.13 138.74-2.85 140.89-2.85L140.89-2.85ZM163.14 0L159.09 0 159.09-24.35 163.14-24.35 163.14 0ZM158.69-30.35L158.69-34.9 163.59-34.9 163.59-30.35 158.69-30.35ZM182.94-24.95Q191.69-24.95 191.69-15.3L191.69-15.3 191.69 0 187.64 0 187.64-15.05Q187.64-18.45 186.31-20 184.99-21.55 182.09-21.55L182.09-21.55Q178.74-21.55 176.74-19.5 174.74-17.45 174.74-13.95L174.74-13.95 174.74 0 170.69 0 170.69-24.35 174.69-24.35 174.69-20.35Q175.89-22.6 178.04-23.78 180.19-24.95 182.94-24.95L182.94-24.95ZM221.28-11.5L227.43 0 222.93 0 216.93-11.3Q215.83-13.35 214.36-14.13 212.88-14.9 210.33-14.9L210.33-14.9 203.73-14.9 203.73 0 199.68 0 199.68-35.25 214.18-35.25Q219.93-35.25 222.96-32.7 225.98-30.15 225.98-25.2L225.98-25.2Q225.98-21.1 223.66-18.57 221.33-16.05 217.03-15.4L217.03-15.4Q218.38-15 219.41-14.05 220.43-13.1 221.28-11.5L221.28-11.5ZM203.73-18.3L213.83-18.3Q217.93-18.3 219.96-20 221.98-21.7 221.98-25.15L221.98-25.15Q221.98-28.55 219.98-30.2 217.98-31.85 213.83-31.85L213.83-31.85 203.73-31.85 203.73-18.3ZM253.78-13.05L253.78-11.55 235.98-11.55Q236.18-7.3 238.28-5.13 240.38-2.95 244.23-2.95L244.23-2.95Q248.48-2.95 252.03-5.85L252.03-5.85 253.38-2.9Q251.78-1.4 249.28-0.53 246.78 0.35 244.18 0.35L244.18 0.35Q238.48 0.35 235.21-3 231.93-6.35 231.93-12.25L231.93-12.25Q231.93-16 233.38-18.88 234.83-21.75 237.46-23.35 240.08-24.95 243.43-24.95L243.43-24.95Q248.28-24.95 251.03-21.78 253.78-18.6 253.78-13.05L253.78-13.05ZM243.48-21.8Q240.28-21.8 238.36-19.8 236.43-17.8 236.08-14.15L236.08-14.15 250.23-14.15Q250.13-17.85 248.38-19.83 246.63-21.8 243.48-21.8L243.48-21.8ZM271.98-24.95Q275.18-24.95 277.63-23.35 280.08-21.75 281.43-18.88 282.78-16 282.78-12.2L282.78-12.2Q282.78-8.4 281.43-5.58 280.08-2.75 277.65-1.2 275.23 0.35 271.98 0.35L271.98 0.35Q269.13 0.35 267-0.9 264.88-2.15 263.78-4.45L263.78-4.45 263.78 9 259.73 9 259.73-24.35 263.78-24.35 263.78-20.15Q264.88-22.45 267-23.7 269.13-24.95 271.98-24.95L271.98-24.95ZM271.18-3Q274.73-3 276.68-5.4 278.63-7.8 278.63-12.2L278.63-12.2Q278.63-16.6 276.68-19.07 274.73-21.55 271.18-21.55L271.18-21.55Q267.63-21.55 265.7-19.15 263.78-16.75 263.78-12.3L263.78-12.3Q263.78-7.85 265.7-5.43 267.63-3 271.18-3L271.18-3Z" opacity="1" transform="matrix(1,0,0,1,0,0)" fill="#000000" class="wordmark-text-0" data-fill-palette-color="primary" id="text-0"></path></svg></g></svg></g></svg></g></svg></g><g><svg viewBox="0 0 150.6742859782141 165.26826174798927" height="165.26826174798927" width="150.6742859782141"><g><svg xmlns="http://www.w3.org/2000/svg" xmlns:xlink="http://www.w3.org/1999/xlink" version="1.1" x="0" y="0" viewBox="13.720000000000002 10.205999999999996 72.56 79.588" enable-background="new 0 0 100 100" xml:space="preserve" height="165.26826174798927" width="150.6742859782141" class="icon-icon-0" data-fill-palette-color="accent" id="icon-0"><g fill="#ffffff" data-fill-palette-color="accent"><path d="M42.161 67.091c-15.683 0-28.441-12.761-28.441-28.443 0-15.683 12.758-28.442 28.441-28.442 8 0 15.674 3.398 21.056 9.323 1.648 1.813 1.514 4.619-0.301 6.266-1.812 1.646-4.619 1.513-6.268-0.301-3.703-4.077-8.984-6.416-14.488-6.416-10.79 0-19.568 8.779-19.568 19.569 0 10.792 8.778 19.57 19.568 19.57 5.504 0 10.785-2.338 14.488-6.415 1.648-1.814 4.455-1.949 6.268-0.301 1.814 1.647 1.949 4.452 0.301 6.268C57.836 63.692 50.161 67.091 42.161 67.091z" fill="#000000" data-fill-palette-color="accent"></path></g><g fill="#ffffff" data-fill-palette-color="accent"><path d="M57.838 89.794c-7.999 0-15.674-3.397-21.056-9.323-1.647-1.812-1.513-4.619 0.301-6.267 1.812-1.648 4.619-1.513 6.266 0.3 3.704 4.08 8.985 6.417 14.489 6.417 10.792 0 19.569-8.778 19.569-19.568 0-10.791-8.777-19.57-19.569-19.57-5.504 0-10.785 2.339-14.489 6.416-1.647 1.813-4.453 1.949-6.266 0.301-1.814-1.647-1.948-4.453-0.301-6.267 5.382-5.925 13.057-9.322 21.056-9.322 15.684 0 28.442 12.759 28.442 28.442C86.28 77.035 73.521 89.794 57.838 89.794z" fill="#000000" data-fill-palette-color="accent"></path></g></svg></g></svg></g></svg></g><defs></defs></svg><rect width="395.52" height="116.49835545591719" fill="none" stroke="none" visibility="hidden"></rect></g></svg></g></svg>